<?xml version="1.0" encoding="UTF-8"?>
<!DOCTYPE svg PUBLIC "-//W3C//DTD SVG 1.1//EN" "http://www.w3.org/Graphics/SVG/1.1/DTD/svg11.dtd">
<!-- Creator: CorelDRAW X8 -->
<svg xmlns="http://www.w3.org/2000/svg" xml:space="preserve" 
width="7mm" 
height="7mm" version="1.1" style="shape-rendering:geometricPrecision; text-rendering:geometricPrecision; image-rendering:optimizeQuality; fill-rule:evenodd; clip-rule:evenodd"
viewBox="0 0 14744 8324"
 xmlns:xlink="http://www.w3.org/1999/xlink">
 <defs>
  <style type="text/css">
   <![CDATA[
    .fil0 {fill:#373435;fill-rule:nonzero}
   ]]>
  </style>
 </defs>
 <g id="Camada_x0020_1">
  <metadata id="CorelCorpID_0Corel-Layer"/>
  <g id="_2631355813232">
   <path class="fil0" d="M12641 8233l-3052 0 0 -8026 2220 0c419,0 1205,-31 2365,-91 -10,154 -15,268 -15,344 0,101 13,338 36,710 16,250 23,385 23,406l0 193 -130 0c-182,-440 -390,-721 -624,-849 -234,-122 -674,-182 -1320,-182l-1212 0c-193,0 -370,13 -534,39 -91,169 -143,580 -159,1226l-15 515 0 1234 1647 0c619,0 1031,-55 1234,-162 205,-107 367,-359 489,-760l166 0c-39,456 -59,851 -59,1187 0,213 15,492 44,838 10,101 23,302 39,601l-167 0c-47,-448 -182,-755 -406,-921 -226,-169 -585,-253 -1074,-253l-1913 0 0 1669c0,642 36,1204 106,1689 214,31 443,46 687,46l1159 0c629,0 1106,-70 1426,-213 335,-148 666,-476 991,-984l151 0c-55,234 -138,503 -250,807 -138,396 -237,739 -299,1028 -578,-60 -1098,-91 -1554,-91z"/>
   <path class="fil0" d="M1364 109l8788 7490 0 630 -151 0 -6907 -5884 0 3547c0,773 99,1309 297,1608 198,302 513,497 939,588l0 141c-770,-63 -1293,-94 -1566,-94 -313,0 -781,31 -1408,94l0 -141c437,-101 736,-307 892,-617 159,-312 237,-861 237,-1647l-8 -3982 -549 -465c-762,-651 -1405,-1065 -1928,-1236l0 -141 1364 109z"/>
   <path class="fil0" d="M10152 6852l-7927 -6743 908 0 6410 5447 0 -3164c0,-531 -36,-937 -107,-1221 -70,-271 -216,-497 -434,-679 -219,-180 -497,-297 -838,-351l0 -141c5,0 93,16 265,31 666,58 982,176 1222,176 218,0 849,78 1672,5l-27 213c-265,36 -441,-138 -642,43 -192,173 -325,386 -395,641 -71,260 -107,624 -107,1090l0 4653z"/>
  </g>
 </g>
</svg>
