<?xml version="1.0" encoding="UTF-8"?>
<!DOCTYPE svg PUBLIC "-//W3C//DTD SVG 1.1//EN" "http://www.w3.org/Graphics/SVG/1.1/DTD/svg11.dtd">
<!-- Creator: CorelDRAW X8 -->
<svg xmlns="http://www.w3.org/2000/svg" xml:space="preserve" 
width="12mm" 
height="12mm" version="1.1" style="shape-rendering:geometricPrecision; text-rendering:geometricPrecision; image-rendering:optimizeQuality; fill-rule:evenodd; clip-rule:evenodd"
viewBox="0 0 736 737"
 xmlns:xlink="http://www.w3.org/1999/xlink">
 <defs>
  <style type="text/css">
   <![CDATA[
    .fil0 {fill:white;fill-rule:nonzero}
   ]]>
  </style>
 </defs>
 <g id="Camada_x0020_1">
  <metadata id="CorelCorpID_0Corel-Layer"/>
  <g id="_2631355804144">
   <path class="fil0" d="M317 124c10,-2 21,-4 31,-5l0 -119c-23,1 -46,5 -68,10l37 114z"/>
   <path class="fil0" d="M240 154c11,-7 23,-13 36,-18l-37 -113c-24,9 -47,20 -68,34l69 97z"/>
   <path class="fil0" d="M119 368c0,-6 0,-13 1,-19l-117 -27c-2,15 -3,31 -3,46 0,27 3,53 8,78l116 -26c-3,-17 -5,-34 -5,-52z"/>
   <path class="fil0" d="M11 280l116 26c4,-17 11,-34 19,-50l-95 -75c-18,30 -32,64 -40,99z"/>
   <path class="fil0" d="M391 120c112,10 203,94 222,203l117 -22c-30,-164 -169,-290 -339,-301l0 120z"/>
   <path class="fil0" d="M168 219c11,-14 23,-27 37,-39l-69 -98c-23,19 -43,40 -61,63l93 74z"/>
   <path class="fil0" d="M525 562c-43,35 -97,56 -157,56l-1 0 -5 118c2,0 4,1 6,1 94,0 179,-35 244,-93l-87 -82z"/>
   <path class="fil0" d="M617 366l1 2c0,63 -24,120 -62,164l86 82c59,-65 94,-151 94,-246 0,-8 0,-16 0,-24l-119 22z"/>
   <path class="fil0" d="M324 613c-43,-7 -83,-26 -115,-53l-86 83c54,48 121,80 196,90l5 -120z"/>
   <path class="fil0" d="M178 530c-17,-21 -31,-44 -41,-69l-117 27c16,46 41,88 73,124l85 -82z"/>
  </g>
 </g>
</svg>
